<?xml version="1.0" standalone="no"?>
<!DOCTYPE svg PUBLIC "-//W3C//DTD SVG 20010904//EN"
 "http://www.w3.org/TR/2001/REC-SVG-20010904/DTD/svg10.dtd">
<svg version="1.0" xmlns="http://www.w3.org/2000/svg"
 width="16.000000pt" height="16.000000pt" viewBox="0 0 16.000000 16.000000"
 preserveAspectRatio="xMidYMid meet">
<metadata>
Created by potrace 1.16, written by Peter Selinger 2001-2019
</metadata>
<g transform="translate(0.000000,16.000000) scale(0.100000,-0.100000)"
fill="#000000" stroke="none">
<path d="M0 136 c0 -22 3 -24 29 -16 32 9 71 28 71 35 0 3 -22 5 -50 5 -46 0
-50 -2 -50 -24z"/>
<path d="M146 127 c3 -8 -2 -17 -10 -20 -12 -5 -16 -20 -16 -57 0 -43 3 -50
20 -50 18 0 20 7 20 64 0 36 -4 68 -10 71 -5 3 -7 0 -4 -8z"/>
<path d="M0 45 c0 -44 0 -45 34 -45 l34 0 -9 38 c-5 20 -9 40 -9 45 0 4 -11 7
-25 7 -23 0 -25 -4 -25 -45z"/>
</g>
</svg>
